<?xml version="1.0" encoding="UTF-8" standalone="no"?>
<!DOCTYPE svg PUBLIC "-//W3C//DTD SVG 1.1//EN"
 "http://www.w3.org/Graphics/SVG/1.1/DTD/svg11.dtd">
<!-- Generated by graphviz version 2.38.0 (20140413.2041)
 -->
<!-- Title: %3 Pages: 1 -->
<svg width="533pt" height="576pt"
 viewBox="0.00 0.00 533.20 576.40" xmlns="http://www.w3.org/2000/svg" xmlns:xlink="http://www.w3.org/1999/xlink">
<g id="graph0" class="graph" transform="scale(1 1) rotate(0) translate(251 213.56)">
<title>%3</title>
<polygon fill="white" stroke="none" points="-251,362.84 -251,-213.56 282.2,-213.56 282.2,362.84 -251,362.84"/>
<!-- C27 -->
<g id="node1" class="node"><title>C27</title>
<polygon fill="none" stroke="red" points="-225.8,28.04 -239.8,28.04 -239.8,42.04 -225.8,42.04 -225.8,28.04"/>
<text text-anchor="middle" x="-232.8" y="37.24" font-family="Times,serif" font-size="9.00">C27</text>
</g>
<!-- C54 -->
<g id="node8" class="node"><title>C54</title>
<polygon fill="none" stroke="red" points="-89,330.44 -103,330.44 -103,344.44 -89,344.44 -89,330.44"/>
<text text-anchor="middle" x="-96" y="339.64" font-family="Times,serif" font-size="9.00">C54</text>
</g>
<!-- C27&#45;&gt;C54 -->
<g id="edge16" class="edge"><title>C27&#45;&gt;C54</title>
<path fill="none" stroke="#ccccd0" stroke-width="0.7" d="M-229.553,42.2168C-211.232,82.7167 -120.857,282.493 -100.207,328.14"/>
<polygon fill="#ccccd0" stroke="#ccccd0" stroke-width="0.7" points="-99.4636,328.085 -99.277,330.196 -100.739,328.662 -99.4636,328.085"/>
</g>
<!-- C96 -->
<g id="node2" class="node"><title>C96</title>
<polygon fill="none" stroke="red" points="40.6,-173.56 26.6,-173.56 26.6,-159.56 40.6,-159.56 40.6,-173.56"/>
<text text-anchor="middle" x="33.6" y="-164.36" font-family="Times,serif" font-size="9.00">C96</text>
</g>
<!-- C95 -->
<g id="node15" class="node"><title>C95</title>
<polygon fill="none" stroke="red" points="55,-173.56 41,-173.56 41,-159.56 55,-159.56 55,-173.56"/>
<text text-anchor="middle" x="48" y="-164.36" font-family="Times,serif" font-size="9.00">C95</text>
</g>
<!-- C96&#45;&gt;C95 -->
<g id="edge5" class="edge"><title>C96&#45;&gt;C95</title>
<path fill="none" stroke="#333334" stroke-width="0.7" d="M40.8,-166.56C40.8563,-166.56 40.9125,-166.56 40.9687,-166.56"/>
<polygon fill="#333334" stroke="#333334" stroke-width="0.7" points="39.1378,-167.261 41.1374,-166.56 39.137,-165.861 39.1378,-167.261"/>
</g>
<!-- S20 -->
<g id="node3" class="node"><title>S20</title>
<ellipse fill="none" stroke="blue" cx="271.2" cy="99.84" rx="7" ry="7"/>
<text text-anchor="middle" x="271.2" y="102.04" font-family="Times,serif" font-size="9.00">S20</text>
</g>
<!-- S0 -->
<g id="node10" class="node"><title>S0</title>
<ellipse fill="none" stroke="blue" cx="-110.4" cy="49.44" rx="7" ry="7"/>
<text text-anchor="middle" x="-110.4" y="51.64" font-family="Times,serif" font-size="9.00">S0</text>
</g>
<!-- S20&#45;&gt;S0 -->
<g id="edge3" class="edge"><title>S20&#45;&gt;S0</title>
<path fill="none" stroke="#000000" stroke-width="0.7" d="M264.251,98.9222C217.722,92.7769 -48.3124,57.6403 -101.243,50.6495"/>
<polygon fill="#000000" stroke="#000000" stroke-width="0.7" points="-101.429,51.3311 -103.32,50.3751 -101.245,49.9431 -101.429,51.3311"/>
</g>
<!-- C78 -->
<g id="node4" class="node"><title>C78</title>
<polygon fill="none" stroke="red" points="242.2,150.44 228.2,150.44 228.2,164.44 242.2,164.44 242.2,150.44"/>
<text text-anchor="middle" x="235.2" y="159.64" font-family="Times,serif" font-size="9.00">C78</text>
</g>
<!-- C78&#45;&gt;S20 -->
<g id="edge2" class="edge"><title>C78&#45;&gt;S20</title>
<path fill="none" stroke="#000000" stroke-width="0.7" d="M239.614,150.377C246.359,139.586 259.187,119.06 266.243,107.772"/>
<polygon fill="#000000" stroke="#000000" stroke-width="0.7" points="265.753,107.234 267.407,105.909 266.94,107.976 265.753,107.234"/>
</g>
<!-- C98 -->
<g id="node5" class="node"><title>C98</title>
<polygon fill="none" stroke="red" points="26.2,-137.56 12.2,-137.56 12.2,-123.56 26.2,-123.56 26.2,-137.56"/>
<text text-anchor="middle" x="19.2" y="-128.36" font-family="Times,serif" font-size="9.00">C98</text>
</g>
<!-- C89 -->
<g id="node7" class="node"><title>C89</title>
<polygon fill="none" stroke="red" points="62.2,-15.16 48.2,-15.16 48.2,-1.16 62.2,-1.16 62.2,-15.16"/>
<text text-anchor="middle" x="55.2" y="-5.96" font-family="Times,serif" font-size="9.00">C89</text>
</g>
<!-- C98&#45;&gt;C89 -->
<g id="edge10" class="edge"><title>C98&#45;&gt;C89</title>
<path fill="none" stroke="#666668" stroke-width="0.7" d="M21.3442,-123.27C27.5617,-102.13 45.5928,-40.8244 52.4811,-17.4042"/>
<polygon fill="#666668" stroke="#666668" stroke-width="0.7" points="53.2193,-17.3749 53.1122,-15.2586 51.8762,-16.9798 53.2193,-17.3749"/>
</g>
<!-- C4 -->
<g id="node6" class="node"><title>C4</title>
<polygon fill="none" stroke="red" points="-89,-87.16 -103,-87.16 -103,-73.16 -89,-73.16 -89,-87.16"/>
<text text-anchor="middle" x="-96" y="-77.96" font-family="Times,serif" font-size="9.00">C4</text>
</g>
<!-- C13 -->
<g id="node14" class="node"><title>C13</title>
<polygon fill="none" stroke="red" points="-233,-137.56 -247,-137.56 -247,-123.56 -233,-123.56 -233,-137.56"/>
<text text-anchor="middle" x="-240" y="-128.36" font-family="Times,serif" font-size="9.00">C13</text>
</g>
<!-- C4&#45;&gt;C13 -->
<g id="edge13" class="edge"><title>C4&#45;&gt;C13</title>
<path fill="none" stroke="#99999c" stroke-width="0.7" d="M-103.339,-82.7286C-127.421,-91.1574 -204.019,-117.967 -230.716,-127.311"/>
<polygon fill="#99999c" stroke="#99999c" stroke-width="0.7" points="-231.19,-126.735 -232.847,-128.056 -230.728,-128.056 -231.19,-126.735"/>
</g>
<!-- C89&#45;&gt;S0 -->
<g id="edge11" class="edge"><title>C89&#45;&gt;S0</title>
<path fill="none" stroke="#666668" stroke-width="0.7" d="M48.0844,-5.685C21.4833,3.56755 -72.0913,36.1152 -101.491,46.3413"/>
<polygon fill="#666668" stroke="#666668" stroke-width="0.7" points="-101.376,47.0424 -103.495,47.0383 -101.836,45.7201 -101.376,47.0424"/>
</g>
<!-- S16 -->
<g id="node12" class="node"><title>S16</title>
<ellipse fill="none" stroke="blue" cx="-52.8" cy="351.84" rx="7" ry="7"/>
<text text-anchor="middle" x="-52.8" y="354.04" font-family="Times,serif" font-size="9.00">S16</text>
</g>
<!-- C54&#45;&gt;S16 -->
<g id="edge17" class="edge"><title>C54&#45;&gt;S16</title>
<path fill="none" stroke="#ccccd0" stroke-width="0.7" d="M-88.8664,339.818C-81.3549,342.322 -69.5237,346.265 -61.4768,348.948"/>
<polygon fill="#ccccd0" stroke="#ccccd0" stroke-width="0.7" points="-61.1934,348.304 -59.5174,349.601 -61.6362,349.632 -61.1934,348.304"/>
</g>
<!-- C100 -->
<g id="node9" class="node"><title>C100</title>
<polygon fill="none" stroke="red" points="4.6,-209.56 -9.4,-209.56 -9.4,-195.56 4.6,-195.56 4.6,-209.56"/>
<text text-anchor="middle" x="-2.4" y="-200.36" font-family="Times,serif" font-size="9.00">C100</text>
</g>
<!-- S3 -->
<g id="node13" class="node"><title>S3</title>
<ellipse fill="none" stroke="blue" cx="12" cy="-180.96" rx="7" ry="7"/>
<text text-anchor="middle" x="12" y="-178.76" font-family="Times,serif" font-size="9.00">S3</text>
</g>
<!-- C100&#45;&gt;S3 -->
<g id="edge7" class="edge"><title>C100&#45;&gt;S3</title>
<path fill="none" stroke="#333334" stroke-width="0.7" d="M2.47518,-195.247C3.90306,-193.105 5.46758,-190.759 6.90854,-188.597"/>
<polygon fill="#333334" stroke="#333334" stroke-width="0.7" points="7.55716,-188.886 8.08416,-186.834 6.39227,-188.11 7.55716,-188.886"/>
</g>
<!-- S0&#45;&gt;C27 -->
<g id="edge15" class="edge"><title>S0&#45;&gt;C27</title>
<path fill="none" stroke="#ccccd0" stroke-width="0.7" d="M-117.69,48.5823C-138.83,46.0953 -200.136,38.8829 -223.556,36.1276"/>
<polygon fill="#ccccd0" stroke="#ccccd0" stroke-width="0.7" points="-223.797,36.8041 -225.701,35.8751 -223.633,35.4137 -223.797,36.8041"/>
</g>
<!-- S0&#45;&gt;C96 -->
<g id="edge4" class="edge"><title>S0&#45;&gt;C96</title>
<path fill="none" stroke="#333334" stroke-width="0.7" d="M-106.246,43.2085C-85.8997,12.6896 3.22923,-121.004 27.4862,-157.389"/>
<polygon fill="#333334" stroke="#333334" stroke-width="0.7" points="27.1657,-158.171 28.8576,-159.446 28.3306,-157.394 27.1657,-158.171"/>
</g>
<!-- S0&#45;&gt;C78 -->
<g id="edge1" class="edge"><title>S0&#45;&gt;C78</title>
<path fill="none" stroke="#000000" stroke-width="0.7" d="M-103.497,51.5973C-59.9576,65.2032 176.36,139.052 226.034,154.576"/>
<polygon fill="#000000" stroke="#000000" stroke-width="0.7" points="226.291,153.923 227.992,155.187 225.874,155.259 226.291,153.923"/>
</g>
<!-- S0&#45;&gt;C98 -->
<g id="edge9" class="edge"><title>S0&#45;&gt;C98</title>
<path fill="none" stroke="#666668" stroke-width="0.7" d="M-106.088,43.4511C-87.054,17.015 -10.4818,-89.3353 12.5891,-121.378"/>
<polygon fill="#666668" stroke="#666668" stroke-width="0.7" points="12.1666,-121.989 13.9033,-123.203 13.3027,-121.171 12.1666,-121.989"/>
</g>
<!-- S0&#45;&gt;C4 -->
<g id="edge12" class="edge"><title>S0&#45;&gt;C4</title>
<path fill="none" stroke="#99999c" stroke-width="0.7" d="M-109.626,42.4721C-107.204,20.6725 -99.7687,-46.2419 -97.0283,-70.9057"/>
<polygon fill="#99999c" stroke="#99999c" stroke-width="0.7" points="-97.6947,-71.2473 -96.778,-73.1577 -96.3033,-71.0926 -97.6947,-71.2473"/>
</g>
<!-- S1 -->
<g id="node11" class="node"><title>S1</title>
<ellipse fill="none" stroke="blue" cx="156" cy="35.04" rx="7" ry="7"/>
<text text-anchor="middle" x="156" y="37.24" font-family="Times,serif" font-size="9.00">S1</text>
</g>
<!-- S16&#45;&gt;S0 -->
<g id="edge18" class="edge"><title>S16&#45;&gt;S0</title>
<path fill="none" stroke="#ccccd0" stroke-width="0.7" d="M-54.1113,344.956C-61.7104,305.06 -100.058,103.738 -108.678,58.4817"/>
<polygon fill="#ccccd0" stroke="#ccccd0" stroke-width="0.7" points="-109.379,58.5415 -109.066,56.4458 -108.004,58.2795 -109.379,58.5415"/>
</g>
<!-- S3&#45;&gt;S0 -->
<g id="edge8" class="edge"><title>S3&#45;&gt;S0</title>
<path fill="none" stroke="#333334" stroke-width="0.7" d="M8.46881,-174.313C-9.05583,-141.325 -86.6155,4.66917 -105.998,41.1545"/>
<polygon fill="#333334" stroke="#333334" stroke-width="0.7" points="-105.53,41.765 -107.086,43.2028 -106.766,41.1081 -105.53,41.765"/>
</g>
<!-- C13&#45;&gt;S0 -->
<g id="edge14" class="edge"><title>C13&#45;&gt;S0</title>
<path fill="none" stroke="#99999c" stroke-width="0.7" d="M-234.759,-123.281C-213.865,-94.2616 -136.633,13.0054 -115.676,42.1121"/>
<polygon fill="#99999c" stroke="#99999c" stroke-width="0.7" points="-115.092,41.7251 -114.492,43.7572 -116.228,42.5432 -115.092,41.7251"/>
</g>
<!-- C95&#45;&gt;C100 -->
<g id="edge6" class="edge"><title>C95&#45;&gt;C100</title>
<path fill="none" stroke="#333334" stroke-width="0.7" d="M40.9921,-171.566C32.0663,-177.941 16.6204,-188.974 6.76725,-196.012"/>
<polygon fill="#333334" stroke="#333334" stroke-width="0.7" points="6.09537,-195.632 4.87477,-197.364 6.90913,-196.771 6.09537,-195.632"/>
</g>
</g>
</svg>
