<?xml version="1.0" encoding="UTF-8" standalone="no"?>
<!DOCTYPE svg PUBLIC "-//W3C//DTD SVG 1.1//EN"
 "http://www.w3.org/Graphics/SVG/1.1/DTD/svg11.dtd">
<!-- Generated by graphviz version 2.38.0 (20140413.2041)
 -->
<!-- Title: %3 Pages: 1 -->
<svg width="260pt" height="454pt"
 viewBox="0.00 0.00 259.60 454.00" xmlns="http://www.w3.org/2000/svg" xmlns:xlink="http://www.w3.org/1999/xlink">
<g id="graph0" class="graph" transform="scale(1 1) rotate(0) translate(119 236.257)">
<title>%3</title>
<polygon fill="white" stroke="none" points="-119,217.743 -119,-236.257 140.6,-236.257 140.6,217.743 -119,217.743"/>
<!-- S15 -->
<g id="node1" class="node"><title>S15</title>
<ellipse fill="none" stroke="blue" cx="-7.2" cy="127.543" rx="7" ry="7"/>
<text text-anchor="middle" x="-7.2" y="129.743" font-family="Times,serif" font-size="9.00">S15</text>
</g>
<!-- C65 -->
<g id="node2" class="node"><title>C65</title>
<polygon fill="none" stroke="red" points="64.6,19.7429 50.6,19.7429 50.6,33.7429 64.6,33.7429 64.6,19.7429"/>
<text text-anchor="middle" x="57.6" y="28.9429" font-family="Times,serif" font-size="9.00">C65</text>
</g>
<!-- C57 -->
<g id="node3" class="node"><title>C57</title>
<polygon fill="none" stroke="red" points="7,199.743 -7,199.743 -7,213.743 7,213.743 7,199.743"/>
<text text-anchor="middle" x="0" y="208.943" font-family="Times,serif" font-size="9.00">C57</text>
</g>
<!-- C65&#45;&gt;C57 -->
<g id="edge4" class="edge"><title>C65&#45;&gt;C57</title>
<path fill="none" stroke="#555556" stroke-width="0.7" d="M55.2707,34.022C46.186,62.4118 13.1364,165.692 2.98583,197.412"/>
<polygon fill="#555556" stroke="#555556" stroke-width="0.7" points="3.57152,197.879 2.29521,199.57 2.23812,197.452 3.57152,197.879"/>
</g>
<!-- S0 -->
<g id="node4" class="node"><title>S0</title>
<ellipse fill="none" stroke="blue" cx="0" cy="-45.2571" rx="7" ry="7"/>
<text text-anchor="middle" x="0" y="-43.0571" font-family="Times,serif" font-size="9.00">S0</text>
</g>
<!-- C57&#45;&gt;S0 -->
<g id="edge5" class="edge"><title>C57&#45;&gt;S0</title>
<path fill="none" stroke="#555556" stroke-width="0.7" d="M0,199.74C0,164.355 0,5.31491 0,-35.623"/>
<polygon fill="#555556" stroke="#555556" stroke-width="0.7" points="-0.699913,-35.9269 0,-37.9269 0.700087,-35.927 -0.699913,-35.9269"/>
</g>
<!-- S0&#45;&gt;C65 -->
<g id="edge3" class="edge"><title>S0&#45;&gt;C65</title>
<path fill="none" stroke="#555556" stroke-width="0.7" d="M4.51978,-39.6074C14.5098,-27.1198 38.5315,2.90719 50.5307,17.9062"/>
<polygon fill="#555556" stroke="#555556" stroke-width="0.7" points="51.2298,17.6596 51.9327,19.6587 50.1366,18.5342 51.2298,17.6596"/>
</g>
<!-- C20 -->
<g id="node5" class="node"><title>C20</title>
<polygon fill="none" stroke="red" points="-65,-52.2571 -79,-52.2571 -79,-38.2571 -65,-38.2571 -65,-52.2571"/>
<text text-anchor="middle" x="-72" y="-43.0571" font-family="Times,serif" font-size="9.00">C20</text>
</g>
<!-- S0&#45;&gt;C20 -->
<g id="edge6" class="edge"><title>S0&#45;&gt;C20</title>
<path fill="none" stroke="#aaaaac" stroke-width="0.7" d="M-7.16686,-45.2571C-20.3209,-45.2571 -48.2965,-45.2571 -62.8202,-45.2571"/>
<polygon fill="#aaaaac" stroke="#aaaaac" stroke-width="0.7" points="-62.8621,-44.5572 -64.8621,-45.2571 -62.8622,-45.9572 -62.8621,-44.5572"/>
</g>
<!-- C98 -->
<g id="node6" class="node"><title>C98</title>
<polygon fill="none" stroke="red" points="136.6,-232.257 122.6,-232.257 122.6,-218.257 136.6,-218.257 136.6,-232.257"/>
<text text-anchor="middle" x="129.6" y="-223.057" font-family="Times,serif" font-size="9.00">C98</text>
</g>
<!-- S0&#45;&gt;C98 -->
<g id="edge1" class="edge"><title>S0&#45;&gt;C98</title>
<path fill="none" stroke="#000000" stroke-width="0.7" d="M1.95355,-52.33C16.2336,-81.4489 94.4672,-190.402 121.065,-218.648"/>
<polygon fill="#000000" stroke="#000000" stroke-width="0.7" points="120.702,-219.28 122.592,-220.238 121.712,-218.311 120.702,-219.28"/>
</g>
<!-- C24 -->
<g id="node7" class="node"><title>C24</title>
<polygon fill="none" stroke="red" points="-101,-52.2571 -115,-52.2571 -115,-38.2571 -101,-38.2571 -101,-52.2571"/>
<text text-anchor="middle" x="-108" y="-43.0571" font-family="Times,serif" font-size="9.00">C24</text>
</g>
<!-- C20&#45;&gt;C24 -->
<g id="edge7" class="edge"><title>C20&#45;&gt;C24</title>
<path fill="none" stroke="#aaaaac" stroke-width="0.7" d="M-79.2851,-45.2571C-84.8478,-45.2571 -92.5571,-45.2571 -98.5872,-45.2571"/>
<polygon fill="#aaaaac" stroke="#aaaaac" stroke-width="0.7" points="-98.7257,-44.5572 -100.726,-45.2571 -98.7257,-45.9572 -98.7257,-44.5572"/>
</g>
<!-- C98&#45;&gt;S0 -->
<g id="edge2" class="edge"><title>C98&#45;&gt;S0</title>
<path fill="none" stroke="#000000" stroke-width="0.7" d="M127.646,-218.184C113.174,-188.674 33.0162,-77.1667 7.48955,-50.7708"/>
<polygon fill="#000000" stroke="#000000" stroke-width="0.7" points="7.93445,-50.2252 6.03004,-49.296 6.93934,-51.21 7.93445,-50.2252"/>
</g>
<!-- C24&#45;&gt;S0 -->
<g id="edge8" class="edge"><title>C24&#45;&gt;S0</title>
<path fill="none" stroke="#aaaaac" stroke-width="0.7" d="M-100.914,-45.2571C-82.0781,-45.2571 -30.7573,-45.2571 -9.45939,-45.2571"/>
<polygon fill="#aaaaac" stroke="#aaaaac" stroke-width="0.7" points="-9.25385,-45.9572 -7.25388,-45.2571 -9.25392,-44.5572 -9.25385,-45.9572"/>
</g>
</g>
</svg>
