<?xml version="1.0" encoding="UTF-8" standalone="no"?>
<!DOCTYPE svg PUBLIC "-//W3C//DTD SVG 1.1//EN"
 "http://www.w3.org/Graphics/SVG/1.1/DTD/svg11.dtd">
<!-- Generated by graphviz version 2.38.0 (20140413.2041)
 -->
<!-- Title: %3 Pages: 1 -->
<svg width="476pt" height="512pt"
 viewBox="0.00 0.00 475.60 511.60" xmlns="http://www.w3.org/2000/svg" xmlns:xlink="http://www.w3.org/1999/xlink">
<g id="graph0" class="graph" transform="scale(1 1) rotate(0) translate(215.48 229.52)">
<title>%3</title>
<polygon fill="white" stroke="none" points="-215.48,282.08 -215.48,-229.52 260.12,-229.52 260.12,282.08 -215.48,282.08"/>
<!-- C18 -->
<g id="node1" class="node"><title>C18</title>
<polygon fill="none" stroke="red" points="-125.48,-167.92 -139.48,-167.92 -139.48,-153.92 -125.48,-153.92 -125.48,-167.92"/>
<text text-anchor="middle" x="-132.48" y="-158.72" font-family="Times,serif" font-size="9.00">C18</text>
</g>
<!-- C19 -->
<g id="node5" class="node"><title>C19</title>
<polygon fill="none" stroke="red" points="-125.48,-203.92 -139.48,-203.92 -139.48,-189.92 -125.48,-189.92 -125.48,-203.92"/>
<text text-anchor="middle" x="-132.48" y="-194.72" font-family="Times,serif" font-size="9.00">C19</text>
</g>
<!-- C18&#45;&gt;C19 -->
<g id="edge10" class="edge"><title>C18&#45;&gt;C19</title>
<path fill="none" stroke="#666668" stroke-width="0.7" d="M-132.48,-168.205C-132.48,-173.768 -132.48,-181.477 -132.48,-187.507"/>
<polygon fill="#666668" stroke="#666668" stroke-width="0.7" points="-133.18,-187.646 -132.48,-189.646 -131.78,-187.646 -133.18,-187.646"/>
</g>
<!-- C85 -->
<g id="node2" class="node"><title>C85</title>
<polygon fill="none" stroke="red" points="256.12,-59.92 242.12,-59.92 242.12,-45.92 256.12,-45.92 256.12,-59.92"/>
<text text-anchor="middle" x="249.12" y="-50.72" font-family="Times,serif" font-size="9.00">C85</text>
</g>
<!-- C95 -->
<g id="node4" class="node"><title>C95</title>
<polygon fill="none" stroke="red" points="212.92,-203.92 198.92,-203.92 198.92,-189.92 212.92,-189.92 212.92,-203.92"/>
<text text-anchor="middle" x="205.92" y="-194.72" font-family="Times,serif" font-size="9.00">C95</text>
</g>
<!-- C85&#45;&gt;C95 -->
<g id="edge4" class="edge"><title>C85&#45;&gt;C95</title>
<path fill="none" stroke="#333334" stroke-width="0.7" d="M246.918,-60.259C239.694,-84.3413 216.714,-160.939 208.705,-187.636"/>
<polygon fill="#333334" stroke="#333334" stroke-width="0.7" points="207.97,-187.65 208.066,-189.767 209.311,-188.052 207.97,-187.65"/>
</g>
<!-- S15 -->
<g id="node3" class="node"><title>S15</title>
<ellipse fill="none" stroke="blue" cx="40.32" cy="191.88" rx="7" ry="7"/>
<text text-anchor="middle" x="40.32" y="194.08" font-family="Times,serif" font-size="9.00">S15</text>
</g>
<!-- C59 -->
<g id="node14" class="node"><title>C59</title>
<polygon fill="none" stroke="red" points="40.12,264.08 26.12,264.08 26.12,278.08 40.12,278.08 40.12,264.08"/>
<text text-anchor="middle" x="33.12" y="273.28" font-family="Times,serif" font-size="9.00">C59</text>
</g>
<!-- S15&#45;&gt;C59 -->
<g id="edge15" class="edge"><title>S15&#45;&gt;C59</title>
<path fill="none" stroke="#99999c" stroke-width="0.7" d="M39.681,198.908C38.3821,213.197 35.4327,245.64 33.9722,261.706"/>
<polygon fill="#99999c" stroke="#99999c" stroke-width="0.7" points="34.6461,262.025 33.7679,263.953 33.2519,261.898 34.6461,262.025"/>
</g>
<!-- C98 -->
<g id="node6" class="node"><title>C98</title>
<polygon fill="none" stroke="red" points="184.12,-167.92 170.12,-167.92 170.12,-153.92 184.12,-153.92 184.12,-167.92"/>
<text text-anchor="middle" x="177.12" y="-158.72" font-family="Times,serif" font-size="9.00">C98</text>
</g>
<!-- C95&#45;&gt;C98 -->
<g id="edge5" class="edge"><title>C95&#45;&gt;C98</title>
<path fill="none" stroke="#333334" stroke-width="0.7" d="M200.092,-189.635C195.564,-183.975 189.257,-176.092 184.398,-170.017"/>
<polygon fill="#333334" stroke="#333334" stroke-width="0.7" points="184.735,-169.319 182.939,-168.194 183.642,-170.193 184.735,-169.319"/>
</g>
<!-- S7 -->
<g id="node19" class="node"><title>S7</title>
<ellipse fill="none" stroke="blue" cx="-89.28" cy="-218.52" rx="7" ry="7"/>
<text text-anchor="middle" x="-89.28" y="-216.32" font-family="Times,serif" font-size="9.00">S7</text>
</g>
<!-- C19&#45;&gt;S7 -->
<g id="edge11" class="edge"><title>C19&#45;&gt;S7</title>
<path fill="none" stroke="#666668" stroke-width="0.7" d="M-125.346,-200.487C-117.747,-204.287 -105.725,-210.298 -97.6743,-214.323"/>
<polygon fill="#666668" stroke="#666668" stroke-width="0.7" points="-97.8202,-215.032 -95.7183,-215.301 -97.1941,-213.78 -97.8202,-215.032"/>
</g>
<!-- S3 -->
<g id="node15" class="node"><title>S3</title>
<ellipse fill="none" stroke="blue" cx="169.92" cy="-211.32" rx="7" ry="7"/>
<text text-anchor="middle" x="169.92" y="-209.12" font-family="Times,serif" font-size="9.00">S3</text>
</g>
<!-- C98&#45;&gt;S3 -->
<g id="edge6" class="edge"><title>C98&#45;&gt;S3</title>
<path fill="none" stroke="#333334" stroke-width="0.7" d="M176.119,-167.928C174.84,-176.88 172.624,-192.39 171.217,-202.239"/>
<polygon fill="#333334" stroke="#333334" stroke-width="0.7" points="170.503,-202.293 170.913,-204.372 171.889,-202.491 170.503,-202.293"/>
</g>
<!-- C13 -->
<g id="node7" class="node"><title>C13</title>
<polygon fill="none" stroke="red" points="-75.08,-167.92 -89.08,-167.92 -89.08,-153.92 -75.08,-153.92 -75.08,-167.92"/>
<text text-anchor="middle" x="-82.08" y="-158.72" font-family="Times,serif" font-size="9.00">C13</text>
</g>
<!-- S0 -->
<g id="node13" class="node"><title>S0</title>
<ellipse fill="none" stroke="blue" cx="47.52" cy="19.08" rx="7" ry="7"/>
<text text-anchor="middle" x="47.52" y="21.28" font-family="Times,serif" font-size="9.00">S0</text>
</g>
<!-- C13&#45;&gt;S0 -->
<g id="edge13" class="edge"><title>C13&#45;&gt;S0</title>
<path fill="none" stroke="#666668" stroke-width="0.7" d="M-76.839,-153.641C-55.9452,-124.622 21.2871,-17.3546 42.2439,11.7521"/>
<polygon fill="#666668" stroke="#666668" stroke-width="0.7" points="42.8278,11.3651 43.4284,13.3972 41.6917,12.1832 42.8278,11.3651"/>
</g>
<!-- C35 -->
<g id="node8" class="node"><title>C35</title>
<polygon fill="none" stroke="red" points="-197.48,120.08 -211.48,120.08 -211.48,134.08 -197.48,134.08 -197.48,120.08"/>
<text text-anchor="middle" x="-204.48" y="129.28" font-family="Times,serif" font-size="9.00">C35</text>
</g>
<!-- S13 -->
<g id="node10" class="node"><title>S13</title>
<ellipse fill="none" stroke="blue" cx="-82.08" cy="134.28" rx="7" ry="7"/>
<text text-anchor="middle" x="-82.08" y="136.48" font-family="Times,serif" font-size="9.00">S13</text>
</g>
<!-- C35&#45;&gt;S13 -->
<g id="edge19" class="edge"><title>C35&#45;&gt;S13</title>
<path fill="none" stroke="#99999c" stroke-width="0.7" d="M-197.19,127.509C-176.05,128.752 -114.744,132.359 -91.3242,133.736"/>
<polygon fill="#99999c" stroke="#99999c" stroke-width="0.7" points="-91.134,133.046 -89.1786,133.862 -91.2163,134.444 -91.134,133.046"/>
</g>
<!-- C10 -->
<g id="node9" class="node"><title>C10</title>
<polygon fill="none" stroke="red" points="18.52,-103.12 4.52,-103.12 4.52,-89.12 18.52,-89.12 18.52,-103.12"/>
<text text-anchor="middle" x="11.52" y="-93.92" font-family="Times,serif" font-size="9.00">C10</text>
</g>
<!-- C10&#45;&gt;S0 -->
<g id="edge2" class="edge"><title>C10&#45;&gt;S0</title>
<path fill="none" stroke="#000000" stroke-width="0.7" d="M17.6434,-88.9396C28.1856,-68.8641 45.8089,-12.4308 48.4886,9.88177"/>
<polygon fill="#000000" stroke="#000000" stroke-width="0.7" points="49.1911,9.87076 48.7005,11.9322 47.7985,10.0148 49.1911,9.87076"/>
</g>
<!-- S13&#45;&gt;S0 -->
<g id="edge22" class="edge"><title>S13&#45;&gt;S0</title>
<path fill="none" stroke="#99999c" stroke-width="0.7" d="M-76.839,129.621C-56.4909,111.534 17.2912,45.95 40.4887,25.33"/>
<polygon fill="#99999c" stroke="#99999c" stroke-width="0.7" points="40.1102,24.7299 42.0701,23.9244 41.0403,25.7763 40.1102,24.7299"/>
</g>
<!-- C50 -->
<g id="node18" class="node"><title>C50</title>
<polygon fill="none" stroke="red" points="-46.28,141.68 -60.28,141.68 -60.28,155.68 -46.28,155.68 -46.28,141.68"/>
<text text-anchor="middle" x="-53.28" y="150.88" font-family="Times,serif" font-size="9.00">C50</text>
</g>
<!-- S13&#45;&gt;C50 -->
<g id="edge20" class="edge"><title>S13&#45;&gt;C50</title>
<path fill="none" stroke="#99999c" stroke-width="0.7" d="M-75.316,132.002C-69.9295,132.58 -62.7093,135.853 -57.9353,139.682"/>
<polygon fill="#99999c" stroke="#99999c" stroke-width="0.7" points="-57.0845,139.501 -56.0515,141.351 -58.0128,140.549 -57.0845,139.501"/>
</g>
<!-- C44 -->
<g id="node11" class="node"><title>C44</title>
<polygon fill="none" stroke="red" points="-3.08,156.08 -17.08,156.08 -17.08,170.08 -3.08,170.08 -3.08,156.08"/>
<text text-anchor="middle" x="-10.08" y="165.28" font-family="Times,serif" font-size="9.00">C44</text>
</g>
<!-- C33 -->
<g id="node20" class="node"><title>C33</title>
<polygon fill="none" stroke="red" points="-175.88,84.08 -189.88,84.08 -189.88,98.08 -175.88,98.08 -175.88,84.08"/>
<text text-anchor="middle" x="-182.88" y="93.28" font-family="Times,serif" font-size="9.00">C33</text>
</g>
<!-- C44&#45;&gt;C33 -->
<g id="edge17" class="edge"><title>C44&#45;&gt;C33</title>
<path fill="none" stroke="#99999c" stroke-width="0.7" d="M-17.505,159.986C-45.2626,148.421 -142.906,107.736 -173.584,94.9534"/>
<polygon fill="#99999c" stroke="#99999c" stroke-width="0.7" points="-174.098,95.4975 -175.675,94.0821 -173.56,94.2052 -174.098,95.4975"/>
</g>
<!-- C40 -->
<g id="node12" class="node"><title>C40</title>
<polygon fill="none" stroke="red" points="18.52,156.08 4.52,156.08 4.52,170.08 18.52,170.08 18.52,156.08"/>
<text text-anchor="middle" x="11.52" y="165.28" font-family="Times,serif" font-size="9.00">C40</text>
</g>
<!-- C61 -->
<g id="node16" class="node"><title>C61</title>
<polygon fill="none" stroke="red" points="126.52,156.08 112.52,156.08 112.52,170.08 126.52,170.08 126.52,156.08"/>
<text text-anchor="middle" x="119.52" y="165.28" font-family="Times,serif" font-size="9.00">C61</text>
</g>
<!-- C40&#45;&gt;C61 -->
<g id="edge24" class="edge"><title>C40&#45;&gt;C61</title>
<path fill="none" stroke="#ccccd0" stroke-width="0.7" d="M18.6062,163.08C37.4419,163.08 88.7627,163.08 110.061,163.08"/>
<polygon fill="#ccccd0" stroke="#ccccd0" stroke-width="0.7" points="110.266,162.38 112.266,163.08 110.266,163.78 110.266,162.38"/>
</g>
<!-- S0&#45;&gt;C85 -->
<g id="edge3" class="edge"><title>S0&#45;&gt;C85</title>
<path fill="none" stroke="#333334" stroke-width="0.7" d="M54.2276,16.6844C84.1039,6.01432 205.112,-37.2027 239.79,-49.5879"/>
<polygon fill="#333334" stroke="#333334" stroke-width="0.7" points="239.64,-50.2774 241.758,-50.2909 240.11,-48.9589 239.64,-50.2774"/>
</g>
<!-- S0&#45;&gt;S15 -->
<g id="edge14" class="edge"><title>S0&#45;&gt;S15</title>
<path fill="none" stroke="#99999c" stroke-width="0.7" d="M47.2106,26.505C46.0541,54.2626 41.9856,151.906 40.7073,182.584"/>
<polygon fill="#99999c" stroke="#99999c" stroke-width="0.7" points="41.403,182.706 40.6202,184.675 40.0042,182.648 41.403,182.706"/>
</g>
<!-- S0&#45;&gt;C10 -->
<g id="edge1" class="edge"><title>S0&#45;&gt;C10</title>
<path fill="none" stroke="#000000" stroke-width="0.7" d="M42.4701,13.8596C32.1177,-4.17504 13.394,-63.6119 10.567,-86.7928"/>
<polygon fill="#000000" stroke="#000000" stroke-width="0.7" points="9.85641,-86.8582 10.3439,-88.9204 11.2488,-87.0043 9.85641,-86.8582"/>
</g>
<!-- S0&#45;&gt;C40 -->
<g id="edge23" class="edge"><title>S0&#45;&gt;C40</title>
<path fill="none" stroke="#ccccd0" stroke-width="0.7" d="M45.7836,26.0254C39.882,49.6319 20.59,126.8 13.8609,153.716"/>
<polygon fill="#ccccd0" stroke="#ccccd0" stroke-width="0.7" points="14.488,154.095 13.3237,155.865 13.1298,153.755 14.488,154.095"/>
</g>
<!-- C30 -->
<g id="node17" class="node"><title>C30</title>
<polygon fill="none" stroke="red" points="-89.48,-23.92 -103.48,-23.92 -103.48,-9.92 -89.48,-9.92 -89.48,-23.92"/>
<text text-anchor="middle" x="-96.48" y="-14.72" font-family="Times,serif" font-size="9.00">C30</text>
</g>
<!-- S0&#45;&gt;C30 -->
<g id="edge8" class="edge"><title>S0&#45;&gt;C30</title>
<path fill="none" stroke="#666668" stroke-width="0.7" d="M40.5746,17.3436C16.9681,11.442 -60.1998,-7.84995 -87.1164,-14.5791"/>
<polygon fill="#666668" stroke="#666668" stroke-width="0.7" points="-87.4946,-13.952 -89.2651,-15.1163 -87.155,-15.3102 -87.4946,-13.952"/>
</g>
<!-- C59&#45;&gt;C44 -->
<g id="edge16" class="edge"><title>C59&#45;&gt;C44</title>
<path fill="none" stroke="#99999c" stroke-width="0.7" d="M30.2855,263.994C22.7207,245.082 2.05648,193.421 -6.39912,172.282"/>
<polygon fill="#99999c" stroke="#99999c" stroke-width="0.7" points="-7.08554,172.451 -7.17845,170.334 -5.78567,171.931 -7.08554,172.451"/>
</g>
<!-- S3&#45;&gt;S0 -->
<g id="edge7" class="edge"><title>S3&#45;&gt;S0</title>
<path fill="none" stroke="#333334" stroke-width="0.7" d="M166.389,-204.673C148.864,-171.685 71.3045,-25.6908 51.9217,10.7945"/>
<polygon fill="#333334" stroke="#333334" stroke-width="0.7" points="52.3901,11.405 50.8335,12.8428 51.1537,10.7481 52.3901,11.405"/>
</g>
<!-- C61&#45;&gt;S0 -->
<g id="edge25" class="edge"><title>C61&#45;&gt;S0</title>
<path fill="none" stroke="#ccccd0" stroke-width="0.7" d="M115.851,155.741C103.698,131.436 64.799,53.6381 51.7978,27.6356"/>
<polygon fill="#ccccd0" stroke="#ccccd0" stroke-width="0.7" points="51.0322,27.6697 50.7639,25.5677 52.2844,27.0435 51.0322,27.6697"/>
</g>
<!-- C30&#45;&gt;C18 -->
<g id="edge9" class="edge"><title>C30&#45;&gt;C18</title>
<path fill="none" stroke="#666668" stroke-width="0.7" d="M-98.3147,-24.259C-104.335,-48.3413 -123.485,-124.939 -130.159,-151.636"/>
<polygon fill="#666668" stroke="#666668" stroke-width="0.7" points="-130.886,-151.657 -130.692,-153.767 -129.527,-151.996 -130.886,-151.657"/>
</g>
<!-- C50&#45;&gt;S13 -->
<g id="edge21" class="edge"><title>C50&#45;&gt;S13</title>
<path fill="none" stroke="#99999c" stroke-width="0.7" d="M-60.3462,150.923C-65.8742,150.236 -73.2048,146.82 -77.8796,142.905"/>
<polygon fill="#99999c" stroke="#99999c" stroke-width="0.7" points="-78.7208,143.078 -79.7074,141.203 -77.7667,142.054 -78.7208,143.078"/>
</g>
<!-- S7&#45;&gt;C13 -->
<g id="edge12" class="edge"><title>S7&#45;&gt;C13</title>
<path fill="none" stroke="#666668" stroke-width="0.7" d="M-88.3971,-211.457C-87.1016,-201.093 -84.6838,-181.75 -83.2443,-170.234"/>
<polygon fill="#666668" stroke="#666668" stroke-width="0.7" points="-82.5236,-170.112 -82.9701,-168.041 -83.9128,-169.938 -82.5236,-170.112"/>
</g>
<!-- C33&#45;&gt;C35 -->
<g id="edge18" class="edge"><title>C33&#45;&gt;C35</title>
<path fill="none" stroke="#99999c" stroke-width="0.7" d="M-187.251,98.3651C-190.647,104.025 -195.377,111.908 -199.022,117.983"/>
<polygon fill="#99999c" stroke="#99999c" stroke-width="0.7" points="-198.486,118.451 -200.115,119.806 -199.687,117.731 -198.486,118.451"/>
</g>
</g>
</svg>
