<?xml version="1.0" encoding="UTF-8" standalone="no"?>
<!DOCTYPE svg PUBLIC "-//W3C//DTD SVG 1.1//EN"
 "http://www.w3.org/Graphics/SVG/1.1/DTD/svg11.dtd">
<!-- Generated by graphviz version 2.38.0 (20140413.2041)
 -->
<!-- Title: %3 Pages: 1 -->
<svg width="375pt" height="317pt"
 viewBox="0.00 0.00 374.80 317.20" xmlns="http://www.w3.org/2000/svg" xmlns:xlink="http://www.w3.org/1999/xlink">
<g id="graph0" class="graph" transform="scale(1 1) rotate(0) translate(182.9 172.1)">
<title>%3</title>
<polygon fill="white" stroke="none" points="-182.9,145.1 -182.9,-172.1 191.9,-172.1 191.9,145.1 -182.9,145.1"/>
<!-- C78 -->
<g id="node1" class="node"><title>C78</title>
<polygon fill="none" stroke="red" points="166.3,-168.1 152.3,-168.1 152.3,-154.1 166.3,-154.1 166.3,-168.1"/>
<text text-anchor="middle" x="159.3" y="-158.9" font-family="Times,serif" font-size="9.00">C78</text>
</g>
<!-- S0 -->
<g id="node7" class="node"><title>S0</title>
<ellipse fill="none" stroke="blue" cx="-27.9" cy="-38.7" rx="7" ry="7"/>
<text text-anchor="middle" x="-27.9" y="-36.5" font-family="Times,serif" font-size="9.00">S0</text>
</g>
<!-- C78&#45;&gt;S0 -->
<g id="edge3" class="edge"><title>C78&#45;&gt;S0</title>
<path fill="none" stroke="#000000" stroke-width="0.7" d="M152.19,-156.451C122.724,-137.185 10.3078,-63.682 -20.2141,-43.7254"/>
<polygon fill="#000000" stroke="#000000" stroke-width="0.7" points="-19.8822,-43.106 -21.9393,-42.5974 -20.6484,-44.2778 -19.8822,-43.106"/>
</g>
<!-- S1 -->
<g id="node2" class="node"><title>S1</title>
<ellipse fill="none" stroke="blue" cx="180.9" cy="-53.1" rx="7" ry="7"/>
<text text-anchor="middle" x="180.9" y="-50.9" font-family="Times,serif" font-size="9.00">S1</text>
</g>
<!-- S1&#45;&gt;C78 -->
<g id="edge2" class="edge"><title>S1&#45;&gt;C78</title>
<path fill="none" stroke="#000000" stroke-width="0.7" d="M179.483,-60.1862C175.716,-79.0219 165.451,-130.343 161.192,-151.641"/>
<polygon fill="#000000" stroke="#000000" stroke-width="0.7" points="160.457,-151.748 160.751,-153.846 161.829,-152.022 160.457,-151.748"/>
</g>
<!-- C91 -->
<g id="node3" class="node"><title>C91</title>
<polygon fill="none" stroke="red" points="-164.9,69.5 -178.9,69.5 -178.9,83.5 -164.9,83.5 -164.9,69.5"/>
<text text-anchor="middle" x="-171.9" y="78.7" font-family="Times,serif" font-size="9.00">C91</text>
</g>
<!-- C95 -->
<g id="node5" class="node"><title>C95</title>
<polygon fill="none" stroke="red" points="-92.9,33.5 -106.9,33.5 -106.9,47.5 -92.9,47.5 -92.9,33.5"/>
<text text-anchor="middle" x="-99.9" y="42.7" font-family="Times,serif" font-size="9.00">C95</text>
</g>
<!-- C91&#45;&gt;C95 -->
<g id="edge7" class="edge"><title>C91&#45;&gt;C95</title>
<path fill="none" stroke="#aaaaac" stroke-width="0.7" d="M-164.733,72.9166C-151.579,66.3396 -123.603,52.3517 -109.08,45.0899"/>
<polygon fill="#aaaaac" stroke="#aaaaac" stroke-width="0.7" points="-109.14,44.3373 -107.038,44.0689 -108.514,45.5895 -109.14,44.3373"/>
</g>
<!-- C75 -->
<g id="node4" class="node"><title>C75</title>
<polygon fill="none" stroke="red" points="79.9,127.1 65.9,127.1 65.9,141.1 79.9,141.1 79.9,127.1"/>
<text text-anchor="middle" x="72.9" y="136.3" font-family="Times,serif" font-size="9.00">C75</text>
</g>
<!-- C75&#45;&gt;S0 -->
<g id="edge5" class="edge"><title>C75&#45;&gt;S0</title>
<path fill="none" stroke="#555556" stroke-width="0.7" d="M65.6881,127.754C44.5433,101.373 -13.7439,1.42353 -26.0336,-29.5694"/>
<polygon fill="#555556" stroke="#555556" stroke-width="0.7" points="-26.7797,-29.5616 -26.8379,-31.6798 -25.4715,-30.0602 -26.7797,-29.5616"/>
</g>
<!-- S13 -->
<g id="node6" class="node"><title>S13</title>
<ellipse fill="none" stroke="blue" cx="-128.7" cy="54.9" rx="7" ry="7"/>
<text text-anchor="middle" x="-128.7" y="57.1" font-family="Times,serif" font-size="9.00">S13</text>
</g>
<!-- C95&#45;&gt;S13 -->
<g id="edge8" class="edge"><title>C95&#45;&gt;S13</title>
<path fill="none" stroke="#aaaaac" stroke-width="0.7" d="M-107.167,44.1337C-111.104,46.1021 -115.993,48.5463 -120.116,50.608"/>
<polygon fill="#aaaaac" stroke="#aaaaac" stroke-width="0.7" points="-120.215,51.4403 -122.317,51.7086 -120.841,50.1881 -120.215,51.4403"/>
</g>
<!-- C28 -->
<g id="node8" class="node"><title>C28</title>
<polygon fill="none" stroke="red" points="22.3,-60.1 8.3,-60.1 8.3,-46.1 22.3,-46.1 22.3,-60.1"/>
<text text-anchor="middle" x="15.3" y="-50.9" font-family="Times,serif" font-size="9.00">C28</text>
</g>
<!-- S13&#45;&gt;C28 -->
<g id="edge9" class="edge"><title>S13&#45;&gt;C28</title>
<path fill="none" stroke="#aaaaac" stroke-width="0.7" d="M-122.877,50.5325C-100.576,33.807 -20.5123,-26.2408 6.40195,-46.4265"/>
<polygon fill="#aaaaac" stroke="#aaaaac" stroke-width="0.7" points="6.22637,-47.1698 8.2464,-47.8098 7.0664,-46.0498 6.22637,-47.1698"/>
</g>
<!-- S0&#45;&gt;S1 -->
<g id="edge1" class="edge"><title>S0&#45;&gt;S1</title>
<path fill="none" stroke="#000000" stroke-width="0.7" d="M-20.4687,-39.2125C11.3146,-41.4045 135.811,-49.9904 171.369,-52.4427"/>
<polygon fill="#000000" stroke="#000000" stroke-width="0.7" points="171.73,-53.1691 173.773,-52.6085 171.826,-51.7725 171.73,-53.1691"/>
</g>
<!-- S0&#45;&gt;C91 -->
<g id="edge6" class="edge"><title>S0&#45;&gt;C91</title>
<path fill="none" stroke="#aaaaac" stroke-width="0.7" d="M-33.3691,-34.3247C-55.1427,-16.9058 -135.795,47.6157 -162.927,69.3217"/>
<polygon fill="#aaaaac" stroke="#aaaaac" stroke-width="0.7" points="-162.788,70.1065 -164.787,70.8093 -163.662,69.0133 -162.788,70.1065"/>
</g>
<!-- S0&#45;&gt;C75 -->
<g id="edge4" class="edge"><title>S0&#45;&gt;C75</title>
<path fill="none" stroke="#555556" stroke-width="0.7" d="M-22.2744,-34.2759C-2.7069,-11.3515 57.9677,92.3873 70.8909,124.611"/>
<polygon fill="#555556" stroke="#555556" stroke-width="0.7" points="71.6706,124.688 71.7376,126.806 70.3645,125.192 71.6706,124.688"/>
</g>
<!-- C28&#45;&gt;S0 -->
<g id="edge10" class="edge"><title>C28&#45;&gt;S0</title>
<path fill="none" stroke="#aaaaac" stroke-width="0.7" d="M8.1664,-50.7221C0.654911,-48.2183 -11.1763,-44.2746 -19.2232,-41.5923"/>
<polygon fill="#aaaaac" stroke="#aaaaac" stroke-width="0.7" points="-19.0638,-40.9076 -21.1826,-40.9391 -19.5066,-42.2357 -19.0638,-40.9076"/>
</g>
</g>
</svg>
