<?xml version="1.0" encoding="UTF-8" standalone="no"?>
<!DOCTYPE svg PUBLIC "-//W3C//DTD SVG 1.1//EN"
 "http://www.w3.org/Graphics/SVG/1.1/DTD/svg11.dtd">
<!-- Generated by graphviz version 2.38.0 (20140413.2041)
 -->
<!-- Title: %3 Pages: 1 -->
<svg width="620pt" height="447pt"
 viewBox="0.00 0.00 619.60 446.80" xmlns="http://www.w3.org/2000/svg" xmlns:xlink="http://www.w3.org/1999/xlink">
<g id="graph0" class="graph" transform="scale(1 1) rotate(0) translate(299.72 243.2)">
<title>%3</title>
<polygon fill="white" stroke="none" points="-299.72,203.6 -299.72,-243.2 319.88,-243.2 319.88,203.6 -299.72,203.6"/>
<!-- S3 -->
<g id="node1" class="node"><title>S3</title>
<ellipse fill="none" stroke="blue" cx="107.28" cy="-225" rx="7" ry="7"/>
<text text-anchor="middle" x="107.28" y="-222.8" font-family="Times,serif" font-size="9.00">S3</text>
</g>
<!-- S0 -->
<g id="node18" class="node"><title>S0</title>
<ellipse fill="none" stroke="blue" cx="-15.12" cy="5.4" rx="7" ry="7"/>
<text text-anchor="middle" x="-15.12" y="7.6" font-family="Times,serif" font-size="9.00">S0</text>
</g>
<!-- S3&#45;&gt;S0 -->
<g id="edge12" class="edge"><title>S3&#45;&gt;S0</title>
<path fill="none" stroke="#555556" stroke-width="0.7" d="M103.749,-218.353C86.2242,-185.365 8.66451,-39.3708 -10.7183,-2.88548"/>
<polygon fill="#555556" stroke="#555556" stroke-width="0.7" points="-10.2499,-2.27502 -11.8065,-0.837201 -11.4863,-2.93187 -10.2499,-2.27502"/>
</g>
<!-- C33 -->
<g id="node2" class="node"><title>C33</title>
<polygon fill="none" stroke="red" points="315.88,178.4 301.88,178.4 301.88,192.4 315.88,192.4 315.88,178.4"/>
<text text-anchor="middle" x="308.88" y="187.6" font-family="Times,serif" font-size="9.00">C33</text>
</g>
<!-- S19 -->
<g id="node12" class="node"><title>S19</title>
<ellipse fill="none" stroke="blue" cx="251.28" cy="149.4" rx="7" ry="7"/>
<text text-anchor="middle" x="251.28" y="151.6" font-family="Times,serif" font-size="9.00">S19</text>
</g>
<!-- C33&#45;&gt;S19 -->
<g id="edge6" class="edge"><title>C33&#45;&gt;S19</title>
<path fill="none" stroke="#2aaaab" stroke-width="0.7" d="M301.817,180.986C291.026,174.241 270.5,161.413 259.212,154.357"/>
<polygon fill="#2aaaab" stroke="#2aaaab" stroke-width="0.7" points="258.674,154.847 257.349,153.193 259.416,153.66 258.674,154.847"/>
</g>
<!-- C83 -->
<g id="node3" class="node"><title>C83</title>
<polygon fill="none" stroke="red" points="-29.72,135.2 -43.72,135.2 -43.72,149.2 -29.72,149.2 -29.72,135.2"/>
<text text-anchor="middle" x="-36.72" y="144.4" font-family="Times,serif" font-size="9.00">C83</text>
</g>
<!-- C84 -->
<g id="node11" class="node"><title>C84</title>
<polygon fill="none" stroke="red" points="114.28,149.6 100.28,149.6 100.28,163.6 114.28,163.6 114.28,149.6"/>
<text text-anchor="middle" x="107.28" y="158.8" font-family="Times,serif" font-size="9.00">C84</text>
</g>
<!-- C83&#45;&gt;C84 -->
<g id="edge21" class="edge"><title>C83&#45;&gt;C84</title>
<path fill="none" stroke="#aaaaac" stroke-width="0.7" d="M-29.381,142.934C-5.29872,145.342 71.299,153.002 97.9958,155.672"/>
<polygon fill="#aaaaac" stroke="#aaaaac" stroke-width="0.7" points="98.2063,154.989 100.127,155.885 98.067,156.382 98.2063,154.989"/>
</g>
<!-- C70 -->
<g id="node4" class="node"><title>C70</title>
<polygon fill="none" stroke="red" points="-44.12,-138.4 -58.12,-138.4 -58.12,-124.4 -44.12,-124.4 -44.12,-138.4"/>
<text text-anchor="middle" x="-51.12" y="-129.2" font-family="Times,serif" font-size="9.00">C70</text>
</g>
<!-- C70&#45;&gt;S0 -->
<g id="edge18" class="edge"><title>C70&#45;&gt;S0</title>
<path fill="none" stroke="#800001" stroke-width="0.7" d="M-49.1845,-124.045C-43.0762,-100.834 -24.2164,-29.1664 -17.514,-3.69731"/>
<polygon fill="#800001" stroke="#800001" stroke-width="0.7" points="-16.8102,-3.77327 -16.9781,-1.66095 -18.1642,-3.41693 -16.8102,-3.77327"/>
</g>
<!-- S7 -->
<g id="node5" class="node"><title>S7</title>
<ellipse fill="none" stroke="blue" cx="-151.92" cy="-232.2" rx="7" ry="7"/>
<text text-anchor="middle" x="-151.92" y="-230" font-family="Times,serif" font-size="9.00">S7</text>
</g>
<!-- S7&#45;&gt;C70 -->
<g id="edge17" class="edge"><title>S7&#45;&gt;C70</title>
<path fill="none" stroke="#800001" stroke-width="0.7" d="M-146.783,-227.063C-130.615,-210.895 -80.6317,-160.912 -60.0826,-140.363"/>
<polygon fill="#800001" stroke="#800001" stroke-width="0.7" points="-59.1073,-140.377 -58.188,-138.468 -60.0972,-139.387 -59.1073,-140.377"/>
</g>
<!-- C100 -->
<g id="node6" class="node"><title>C100</title>
<polygon fill="none" stroke="red" points="-72.92,-124 -86.92,-124 -86.92,-110 -72.92,-110 -72.92,-124"/>
<text text-anchor="middle" x="-79.92" y="-114.8" font-family="Times,serif" font-size="9.00">C100</text>
</g>
<!-- C6 -->
<g id="node15" class="node"><title>C6</title>
<polygon fill="none" stroke="red" points="-166.52,-181.6 -180.52,-181.6 -180.52,-167.6 -166.52,-167.6 -166.52,-181.6"/>
<text text-anchor="middle" x="-173.52" y="-172.4" font-family="Times,serif" font-size="9.00">C6</text>
</g>
<!-- C100&#45;&gt;C6 -->
<g id="edge14" class="edge"><title>C100&#45;&gt;C6</title>
<path fill="none" stroke="#800001" stroke-width="0.7" d="M-86.9552,-121.329C-103.759,-131.67 -146.206,-157.792 -164.691,-169.167"/>
<polygon fill="#800001" stroke="#800001" stroke-width="0.7" points="-165.067,-168.576 -166.403,-170.22 -164.333,-169.768 -165.067,-168.576"/>
</g>
<!-- C34 -->
<g id="node7" class="node"><title>C34</title>
<polygon fill="none" stroke="red" points="315.88,106.4 301.88,106.4 301.88,120.4 315.88,120.4 315.88,106.4"/>
<text text-anchor="middle" x="308.88" y="115.6" font-family="Times,serif" font-size="9.00">C34</text>
</g>
<!-- C34&#45;&gt;C33 -->
<g id="edge5" class="edge"><title>C34&#45;&gt;C33</title>
<path fill="none" stroke="#2aaaab" stroke-width="0.7" d="M308.88,120.567C308.88,133.721 308.88,161.697 308.88,176.22"/>
<polygon fill="#2aaaab" stroke="#2aaaab" stroke-width="0.7" points="309.58,176.262 308.88,178.262 308.18,176.262 309.58,176.262"/>
</g>
<!-- C15 -->
<g id="node8" class="node"><title>C15</title>
<polygon fill="none" stroke="red" points="-281.72,70.4 -295.72,70.4 -295.72,84.4 -281.72,84.4 -281.72,70.4"/>
<text text-anchor="middle" x="-288.72" y="79.6" font-family="Times,serif" font-size="9.00">C15</text>
</g>
<!-- C15&#45;&gt;S0 -->
<g id="edge3" class="edge"><title>C15&#45;&gt;S0</title>
<path fill="none" stroke="#000000" stroke-width="0.7" d="M-281.682,75.5479C-244.047,65.644 -66.6935,18.972 -24.2583,7.80481"/>
<polygon fill="#000000" stroke="#000000" stroke-width="0.7" points="-24.2239,7.07199 -22.1116,7.23989 -23.8676,8.4259 -24.2239,7.07199"/>
</g>
<!-- C87 -->
<g id="node9" class="node"><title>C87</title>
<polygon fill="none" stroke="red" points="-209.72,185.6 -223.72,185.6 -223.72,199.6 -209.72,199.6 -209.72,185.6"/>
<text text-anchor="middle" x="-216.72" y="194.8" font-family="Times,serif" font-size="9.00">C87</text>
</g>
<!-- C90 -->
<g id="node10" class="node"><title>C90</title>
<polygon fill="none" stroke="red" points="-29.72,20 -43.72,20 -43.72,34 -29.72,34 -29.72,20"/>
<text text-anchor="middle" x="-36.72" y="29.2" font-family="Times,serif" font-size="9.00">C90</text>
</g>
<!-- C87&#45;&gt;C90 -->
<g id="edge24" class="edge"><title>C87&#45;&gt;C90</title>
<path fill="none" stroke="#d55557" stroke-width="0.7" d="M-209.441,185.903C-180.938,159.68 -76.9439,64.0059 -45.6735,35.2372"/>
<polygon fill="#d55557" stroke="#d55557" stroke-width="0.7" points="-45.8383,34.4377 -43.8925,33.5987 -44.8905,35.468 -45.8383,34.4377"/>
</g>
<!-- C90&#45;&gt;S0 -->
<g id="edge25" class="edge"><title>C90&#45;&gt;S0</title>
<path fill="none" stroke="#d55557" stroke-width="0.7" d="M-29.4072,19.6872C-26.9411,17.2211 -24.2032,14.4832 -21.7894,12.0694"/>
<polygon fill="#d55557" stroke="#d55557" stroke-width="0.7" points="-22.0866,11.3767 -20.1774,10.4574 -21.0967,12.3666 -22.0866,11.3767"/>
</g>
<!-- C84&#45;&gt;S0 -->
<g id="edge22" class="edge"><title>C84&#45;&gt;S0</title>
<path fill="none" stroke="#aaaaac" stroke-width="0.7" d="M101.376,149.307C80.6707,123.73 11.4863,38.2666 -9.21756,12.6912"/>
<polygon fill="#aaaaac" stroke="#aaaaac" stroke-width="0.7" points="-9.90877,12.9499 -10.6231,10.955 -8.82062,12.069 -9.90877,12.9499"/>
</g>
<!-- C62 -->
<g id="node19" class="node"><title>C62</title>
<polygon fill="none" stroke="red" points="171.88,106.4 157.88,106.4 157.88,120.4 171.88,120.4 171.88,106.4"/>
<text text-anchor="middle" x="164.88" y="115.6" font-family="Times,serif" font-size="9.00">C62</text>
</g>
<!-- S19&#45;&gt;C62 -->
<g id="edge7" class="edge"><title>S19&#45;&gt;C62</title>
<path fill="none" stroke="#2aaaab" stroke-width="0.7" d="M244.786,146.694C229.55,140.346 191.479,124.483 173.961,117.184"/>
<polygon fill="#2aaaab" stroke="#2aaaab" stroke-width="0.7" points="173.507,117.753 171.93,116.337 174.045,116.461 173.507,117.753"/>
</g>
<!-- C39 -->
<g id="node13" class="node"><title>C39</title>
<polygon fill="none" stroke="red" points="135.88,-217.6 121.88,-217.6 121.88,-203.6 135.88,-203.6 135.88,-217.6"/>
<text text-anchor="middle" x="128.88" y="-208.4" font-family="Times,serif" font-size="9.00">C39</text>
</g>
<!-- C72 -->
<g id="node14" class="node"><title>C72</title>
<polygon fill="none" stroke="red" points="157.48,-109.6 143.48,-109.6 143.48,-95.6 157.48,-95.6 157.48,-109.6"/>
<text text-anchor="middle" x="150.48" y="-100.4" font-family="Times,serif" font-size="9.00">C72</text>
</g>
<!-- C39&#45;&gt;C72 -->
<g id="edge10" class="edge"><title>C39&#45;&gt;C72</title>
<path fill="none" stroke="#555556" stroke-width="0.7" d="M130.297,-203.514C134.064,-184.678 144.329,-133.357 148.588,-112.059"/>
<polygon fill="#555556" stroke="#555556" stroke-width="0.7" points="149.323,-111.952 149.029,-109.854 147.951,-111.678 149.323,-111.952"/>
</g>
<!-- C72&#45;&gt;S3 -->
<g id="edge11" class="edge"><title>C72&#45;&gt;S3</title>
<path fill="none" stroke="#555556" stroke-width="0.7" d="M147.907,-109.89C140.411,-131.129 118.604,-192.915 110.427,-216.085"/>
<polygon fill="#555556" stroke="#555556" stroke-width="0.7" points="109.684,-216.085 109.679,-218.204 111.004,-216.551 109.684,-216.085"/>
</g>
<!-- C8 -->
<g id="node20" class="node"><title>C8</title>
<polygon fill="none" stroke="red" points="-188.12,-217.6 -202.12,-217.6 -202.12,-203.6 -188.12,-203.6 -188.12,-217.6"/>
<text text-anchor="middle" x="-195.12" y="-208.4" font-family="Times,serif" font-size="9.00">C8</text>
</g>
<!-- C6&#45;&gt;C8 -->
<g id="edge15" class="edge"><title>C6&#45;&gt;C8</title>
<path fill="none" stroke="#800001" stroke-width="0.7" d="M-177.891,-181.885C-181.287,-187.545 -186.017,-195.428 -189.662,-201.503"/>
<polygon fill="#800001" stroke="#800001" stroke-width="0.7" points="-190.327,-201.251 -190.755,-203.326 -189.126,-201.971 -190.327,-201.251"/>
</g>
<!-- C65 -->
<g id="node16" class="node"><title>C65</title>
<polygon fill="none" stroke="red" points="-44.12,70.4 -58.12,70.4 -58.12,84.4 -44.12,84.4 -44.12,70.4"/>
<text text-anchor="middle" x="-51.12" y="79.6" font-family="Times,serif" font-size="9.00">C65</text>
</g>
<!-- C65&#45;&gt;C83 -->
<g id="edge20" class="edge"><title>C65&#45;&gt;C83</title>
<path fill="none" stroke="#aaaaac" stroke-width="0.7" d="M-49.4681,84.8334C-46.8423,96.6495 -41.7185,119.707 -38.8305,132.703"/>
<polygon fill="#aaaaac" stroke="#aaaaac" stroke-width="0.7" points="-38.1032,132.749 -38.3526,134.853 -39.4699,133.053 -38.1032,132.749"/>
</g>
<!-- S11 -->
<g id="node17" class="node"><title>S11</title>
<ellipse fill="none" stroke="blue" cx="-231.12" cy="163.8" rx="7" ry="7"/>
<text text-anchor="middle" x="-231.12" y="166" font-family="Times,serif" font-size="9.00">S11</text>
</g>
<!-- S11&#45;&gt;C15 -->
<g id="edge2" class="edge"><title>S11&#45;&gt;C15</title>
<path fill="none" stroke="#000000" stroke-width="0.7" d="M-235.079,157.861C-244.946,143.06 -270.69,104.445 -282.561,86.6393"/>
<polygon fill="#000000" stroke="#000000" stroke-width="0.7" points="-283.41,86.6264 -283.937,84.5739 -282.246,85.8497 -283.41,86.6264"/>
</g>
<!-- S0&#45;&gt;C100 -->
<g id="edge13" class="edge"><title>S0&#45;&gt;C100</title>
<path fill="none" stroke="#800001" stroke-width="0.7" d="M-18.4225,-0.83811C-29.0589,-20.929 -62.46,-84.02 -75.0519,-107.805"/>
<polygon fill="#800001" stroke="#800001" stroke-width="0.7" points="-75.7464,-107.62 -76.0635,-109.716 -74.509,-108.275 -75.7464,-107.62"/>
</g>
<!-- S0&#45;&gt;C34 -->
<g id="edge4" class="edge"><title>S0&#45;&gt;C34</title>
<path fill="none" stroke="#2aaaab" stroke-width="0.7" d="M-8.3528,7.65573C33.0644,21.4615 252.12,94.4799 299.739,110.353"/>
<polygon fill="#2aaaab" stroke="#2aaaab" stroke-width="0.7" points="300.2,109.769 301.876,111.065 299.757,111.097 300.2,109.769"/>
</g>
<!-- S0&#45;&gt;C87 -->
<g id="edge23" class="edge"><title>S0&#45;&gt;C87</title>
<path fill="none" stroke="#d55557" stroke-width="0.7" d="M-20.5123,10.4071C-48.1266,36.0489 -173.735,152.685 -208.04,184.54"/>
<polygon fill="#d55557" stroke="#d55557" stroke-width="0.7" points="-207.662,185.144 -209.604,185.992 -208.615,184.119 -207.662,185.144"/>
</g>
<!-- S0&#45;&gt;C39 -->
<g id="edge9" class="edge"><title>S0&#45;&gt;C39</title>
<path fill="none" stroke="#555556" stroke-width="0.7" d="M-10.9657,-0.831514C9.38029,-31.3504 98.5092,-165.044 122.766,-201.429"/>
<polygon fill="#555556" stroke="#555556" stroke-width="0.7" points="122.446,-202.211 124.138,-203.486 123.611,-201.434 122.446,-202.211"/>
</g>
<!-- S0&#45;&gt;C65 -->
<g id="edge19" class="edge"><title>S0&#45;&gt;C65</title>
<path fill="none" stroke="#aaaaac" stroke-width="0.7" d="M-18.4423,12.0445C-24.8794,24.9188 -39.0656,53.2913 -46.4485,68.057"/>
<polygon fill="#aaaaac" stroke="#aaaaac" stroke-width="0.7" points="-45.9661,68.6576 -47.4867,70.1334 -47.2183,68.0315 -45.9661,68.6576"/>
</g>
<!-- S0&#45;&gt;S11 -->
<g id="edge1" class="edge"><title>S0&#45;&gt;S11</title>
<path fill="none" stroke="#000000" stroke-width="0.7" d="M-20.8975,9.63682C-50.893,31.6335 -188.804,132.768 -223.287,158.056"/>
<polygon fill="#000000" stroke="#000000" stroke-width="0.7" points="-223.197,158.858 -225.223,159.476 -224.025,157.729 -223.197,158.858"/>
</g>
<!-- C62&#45;&gt;S0 -->
<g id="edge8" class="edge"><title>C62&#45;&gt;S0</title>
<path fill="none" stroke="#2aaaab" stroke-width="0.7" d="M157.601,109.033C128.826,91.7674 23.1135,28.3401 -7.04114,10.2473"/>
<polygon fill="#2aaaab" stroke="#2aaaab" stroke-width="0.7" points="-7.72477,10.6535 -9.07961,9.02424 -7.00445,9.45302 -7.72477,10.6535"/>
</g>
<!-- C8&#45;&gt;S7 -->
<g id="edge16" class="edge"><title>C8&#45;&gt;S7</title>
<path fill="none" stroke="#800001" stroke-width="0.7" d="M-187.986,-214.167C-180.387,-217.967 -168.365,-223.978 -160.314,-228.003"/>
<polygon fill="#800001" stroke="#800001" stroke-width="0.7" points="-160.46,-228.712 -158.358,-228.981 -159.834,-227.46 -160.46,-228.712"/>
</g>
</g>
</svg>
