<?xml version="1.0" encoding="UTF-8" standalone="no"?>
<!DOCTYPE svg PUBLIC "-//W3C//DTD SVG 1.1//EN"
 "http://www.w3.org/Graphics/SVG/1.1/DTD/svg11.dtd">
<!-- Generated by graphviz version 2.38.0 (20140413.2041)
 -->
<!-- Title: %3 Pages: 1 -->
<svg width="620pt" height="447pt"
 viewBox="0.00 0.00 619.60 446.80" xmlns="http://www.w3.org/2000/svg" xmlns:xlink="http://www.w3.org/1999/xlink">
<g id="graph0" class="graph" transform="scale(1 1) rotate(0) translate(299.72 243.2)">
<title>%3</title>
<polygon fill="white" stroke="none" points="-299.72,203.6 -299.72,-243.2 319.88,-243.2 319.88,203.6 -299.72,203.6"/>
<!-- C90 -->
<g id="node1" class="node"><title>C90</title>
<polygon fill="none" stroke="red" points="-29.72,20 -43.72,20 -43.72,34 -29.72,34 -29.72,20"/>
<text text-anchor="middle" x="-36.72" y="29.2" font-family="Times,serif" font-size="9.00">C90</text>
</g>
<!-- S0 -->
<g id="node10" class="node"><title>S0</title>
<ellipse fill="none" stroke="blue" cx="-15.12" cy="5.4" rx="7" ry="7"/>
<text text-anchor="middle" x="-15.12" y="7.6" font-family="Times,serif" font-size="9.00">S0</text>
</g>
<!-- C90&#45;&gt;S0 -->
<g id="edge27" class="edge"><title>C90&#45;&gt;S0</title>
<path fill="none" stroke="#d55557" stroke-width="0.7" d="M-29.4072,19.6872C-26.9411,17.2211 -24.2032,14.4832 -21.7894,12.0694"/>
<polygon fill="#d55557" stroke="#d55557" stroke-width="0.7" points="-22.0866,11.3767 -20.1774,10.4574 -21.0967,12.3666 -22.0866,11.3767"/>
</g>
<!-- C70 -->
<g id="node2" class="node"><title>C70</title>
<polygon fill="none" stroke="red" points="-44.12,-138.4 -58.12,-138.4 -58.12,-124.4 -44.12,-124.4 -44.12,-138.4"/>
<text text-anchor="middle" x="-51.12" y="-129.2" font-family="Times,serif" font-size="9.00">C70</text>
</g>
<!-- C6 -->
<g id="node9" class="node"><title>C6</title>
<polygon fill="none" stroke="red" points="-166.52,-181.6 -180.52,-181.6 -180.52,-167.6 -166.52,-167.6 -166.52,-181.6"/>
<text text-anchor="middle" x="-173.52" y="-172.4" font-family="Times,serif" font-size="9.00">C6</text>
</g>
<!-- C70&#45;&gt;C6 -->
<g id="edge15" class="edge"><title>C70&#45;&gt;C6</title>
<path fill="none" stroke="#800001" stroke-width="0.7" d="M-58.4101,-133.973C-79.5497,-141.434 -140.856,-163.071 -164.276,-171.337"/>
<polygon fill="#800001" stroke="#800001" stroke-width="0.7" points="-164.768,-170.769 -166.421,-172.095 -164.302,-172.089 -164.768,-170.769"/>
</g>
<!-- C65 -->
<g id="node3" class="node"><title>C65</title>
<polygon fill="none" stroke="red" points="-44.12,70.4 -58.12,70.4 -58.12,84.4 -44.12,84.4 -44.12,70.4"/>
<text text-anchor="middle" x="-51.12" y="79.6" font-family="Times,serif" font-size="9.00">C65</text>
</g>
<!-- C83 -->
<g id="node7" class="node"><title>C83</title>
<polygon fill="none" stroke="red" points="-29.72,135.2 -43.72,135.2 -43.72,149.2 -29.72,149.2 -29.72,135.2"/>
<text text-anchor="middle" x="-36.72" y="144.4" font-family="Times,serif" font-size="9.00">C83</text>
</g>
<!-- C65&#45;&gt;C83 -->
<g id="edge21" class="edge"><title>C65&#45;&gt;C83</title>
<path fill="none" stroke="#aaaaac" stroke-width="0.7" d="M-49.4681,84.8334C-46.8423,96.6495 -41.7185,119.707 -38.8305,132.703"/>
<polygon fill="#aaaaac" stroke="#aaaaac" stroke-width="0.7" points="-38.1032,132.749 -38.3526,134.853 -39.4699,133.053 -38.1032,132.749"/>
</g>
<!-- S11 -->
<g id="node4" class="node"><title>S11</title>
<ellipse fill="none" stroke="blue" cx="-231.12" cy="163.8" rx="7" ry="7"/>
<text text-anchor="middle" x="-231.12" y="166" font-family="Times,serif" font-size="9.00">S11</text>
</g>
<!-- S11&#45;&gt;S0 -->
<g id="edge24" class="edge"><title>S11&#45;&gt;S0</title>
<path fill="none" stroke="#aaaaac" stroke-width="0.7" d="M-227.137,158.035C-201.401,131.954 -61.4287,29.1507 -24.147,8.70506"/>
<polygon fill="#aaaaac" stroke="#aaaaac" stroke-width="0.7" points="-24.1371,7.90639 -22.043,7.5825 -23.478,9.14159 -24.1371,7.90639"/>
</g>
<!-- C15 -->
<g id="node19" class="node"><title>C15</title>
<polygon fill="none" stroke="red" points="-281.72,70.4 -295.72,70.4 -295.72,84.4 -281.72,84.4 -281.72,70.4"/>
<text text-anchor="middle" x="-288.72" y="79.6" font-family="Times,serif" font-size="9.00">C15</text>
</g>
<!-- S11&#45;&gt;C15 -->
<g id="edge2" class="edge"><title>S11&#45;&gt;C15</title>
<path fill="none" stroke="#000000" stroke-width="0.7" d="M-235.079,157.861C-244.946,143.06 -270.69,104.445 -282.561,86.6393"/>
<polygon fill="#000000" stroke="#000000" stroke-width="0.7" points="-283.41,86.6264 -283.937,84.5739 -282.246,85.8497 -283.41,86.6264"/>
</g>
<!-- C72 -->
<g id="node5" class="node"><title>C72</title>
<polygon fill="none" stroke="red" points="157.48,-109.6 143.48,-109.6 143.48,-95.6 157.48,-95.6 157.48,-109.6"/>
<text text-anchor="middle" x="150.48" y="-100.4" font-family="Times,serif" font-size="9.00">C72</text>
</g>
<!-- S3 -->
<g id="node12" class="node"><title>S3</title>
<ellipse fill="none" stroke="blue" cx="107.28" cy="-225" rx="7" ry="7"/>
<text text-anchor="middle" x="107.28" y="-222.8" font-family="Times,serif" font-size="9.00">S3</text>
</g>
<!-- C72&#45;&gt;S3 -->
<g id="edge12" class="edge"><title>C72&#45;&gt;S3</title>
<path fill="none" stroke="#555556" stroke-width="0.7" d="M147.907,-109.89C140.411,-131.129 118.604,-192.915 110.427,-216.085"/>
<polygon fill="#555556" stroke="#555556" stroke-width="0.7" points="109.684,-216.085 109.679,-218.204 111.004,-216.551 109.684,-216.085"/>
</g>
<!-- C100 -->
<g id="node6" class="node"><title>C100</title>
<polygon fill="none" stroke="red" points="-72.92,-124 -86.92,-124 -86.92,-110 -72.92,-110 -72.92,-124"/>
<text text-anchor="middle" x="-79.92" y="-114.8" font-family="Times,serif" font-size="9.00">C100</text>
</g>
<!-- C100&#45;&gt;S0 -->
<g id="edge19" class="edge"><title>C100&#45;&gt;S0</title>
<path fill="none" stroke="#800001" stroke-width="0.7" d="M-76.0605,-109.71C-64.6649,-88.1847 -31.2219,-25.0146 -19.3558,-2.60089"/>
<polygon fill="#800001" stroke="#800001" stroke-width="0.7" points="-18.7243,-2.90417 -18.4071,-0.809042 -19.9616,-2.24909 -18.7243,-2.90417"/>
</g>
<!-- C87 -->
<g id="node20" class="node"><title>C87</title>
<polygon fill="none" stroke="red" points="-209.72,185.6 -223.72,185.6 -223.72,199.6 -209.72,199.6 -209.72,185.6"/>
<text text-anchor="middle" x="-216.72" y="194.8" font-family="Times,serif" font-size="9.00">C87</text>
</g>
<!-- C83&#45;&gt;C87 -->
<g id="edge22" class="edge"><title>C83&#45;&gt;C87</title>
<path fill="none" stroke="#aaaaac" stroke-width="0.7" d="M-43.9991,144.238C-72.3889,152.187 -175.669,181.106 -207.389,189.987"/>
<polygon fill="#aaaaac" stroke="#aaaaac" stroke-width="0.7" points="-207.433,190.726 -209.547,190.592 -207.81,189.378 -207.433,190.726"/>
</g>
<!-- S7 -->
<g id="node8" class="node"><title>S7</title>
<ellipse fill="none" stroke="blue" cx="-151.92" cy="-232.2" rx="7" ry="7"/>
<text text-anchor="middle" x="-151.92" y="-230" font-family="Times,serif" font-size="9.00">S7</text>
</g>
<!-- S7&#45;&gt;C100 -->
<g id="edge18" class="edge"><title>S7&#45;&gt;C100</title>
<path fill="none" stroke="#800001" stroke-width="0.7" d="M-148.049,-226.006C-136.06,-206.824 -99.5076,-148.34 -85.4812,-125.898"/>
<polygon fill="#800001" stroke="#800001" stroke-width="0.7" points="-84.8191,-126.159 -84.3527,-124.092 -86.0063,-125.417 -84.8191,-126.159"/>
</g>
<!-- C8 -->
<g id="node11" class="node"><title>C8</title>
<polygon fill="none" stroke="red" points="-188.12,-217.6 -202.12,-217.6 -202.12,-203.6 -188.12,-203.6 -188.12,-217.6"/>
<text text-anchor="middle" x="-195.12" y="-208.4" font-family="Times,serif" font-size="9.00">C8</text>
</g>
<!-- C6&#45;&gt;C8 -->
<g id="edge16" class="edge"><title>C6&#45;&gt;C8</title>
<path fill="none" stroke="#800001" stroke-width="0.7" d="M-177.891,-181.885C-181.287,-187.545 -186.017,-195.428 -189.662,-201.503"/>
<polygon fill="#800001" stroke="#800001" stroke-width="0.7" points="-190.327,-201.251 -190.755,-203.326 -189.126,-201.971 -190.327,-201.251"/>
</g>
<!-- S0&#45;&gt;C70 -->
<g id="edge14" class="edge"><title>S0&#45;&gt;C70</title>
<path fill="none" stroke="#800001" stroke-width="0.7" d="M-16.9547,-1.57201C-22.9474,-24.3443 -41.9477,-96.5453 -48.7054,-122.225"/>
<polygon fill="#800001" stroke="#800001" stroke-width="0.7" points="-49.4137,-122.166 -49.2458,-124.278 -48.0598,-122.522 -49.4137,-122.166"/>
</g>
<!-- S0&#45;&gt;C65 -->
<g id="edge20" class="edge"><title>S0&#45;&gt;C65</title>
<path fill="none" stroke="#aaaaac" stroke-width="0.7" d="M-18.4423,12.0445C-24.8794,24.9188 -39.0656,53.2913 -46.4485,68.057"/>
<polygon fill="#aaaaac" stroke="#aaaaac" stroke-width="0.7" points="-45.9661,68.6576 -47.4867,70.1334 -47.2183,68.0315 -45.9661,68.6576"/>
</g>
<!-- S0&#45;&gt;S11 -->
<g id="edge1" class="edge"><title>S0&#45;&gt;S11</title>
<path fill="none" stroke="#000000" stroke-width="0.7" d="M-19.1028,11.1654C-44.8386,37.2459 -184.811,140.049 -222.093,160.495"/>
<polygon fill="#000000" stroke="#000000" stroke-width="0.7" points="-222.103,161.294 -224.197,161.618 -222.762,160.058 -222.103,161.294"/>
</g>
<!-- C34 -->
<g id="node14" class="node"><title>C34</title>
<polygon fill="none" stroke="red" points="315.88,106.4 301.88,106.4 301.88,120.4 315.88,120.4 315.88,106.4"/>
<text text-anchor="middle" x="308.88" y="115.6" font-family="Times,serif" font-size="9.00">C34</text>
</g>
<!-- S0&#45;&gt;C34 -->
<g id="edge4" class="edge"><title>S0&#45;&gt;C34</title>
<path fill="none" stroke="#2aaaab" stroke-width="0.7" d="M-8.3528,7.65573C33.0644,21.4615 252.12,94.4799 299.739,110.353"/>
<polygon fill="#2aaaab" stroke="#2aaaab" stroke-width="0.7" points="300.2,109.769 301.876,111.065 299.757,111.097 300.2,109.769"/>
</g>
<!-- C84 -->
<g id="node15" class="node"><title>C84</title>
<polygon fill="none" stroke="red" points="114.28,149.6 100.28,149.6 100.28,163.6 114.28,163.6 114.28,149.6"/>
<text text-anchor="middle" x="107.28" y="158.8" font-family="Times,serif" font-size="9.00">C84</text>
</g>
<!-- S0&#45;&gt;C84 -->
<g id="edge25" class="edge"><title>S0&#45;&gt;C84</title>
<path fill="none" stroke="#d55557" stroke-width="0.7" d="M-10.4712,11.1426C8.19599,34.2021 77.777,120.155 100.24,147.903"/>
<polygon fill="#d55557" stroke="#d55557" stroke-width="0.7" points="100.811,147.496 101.525,149.491 99.7228,148.377 100.811,147.496"/>
</g>
<!-- C39 -->
<g id="node16" class="node"><title>C39</title>
<polygon fill="none" stroke="red" points="135.88,-217.6 121.88,-217.6 121.88,-203.6 135.88,-203.6 135.88,-217.6"/>
<text text-anchor="middle" x="128.88" y="-208.4" font-family="Times,serif" font-size="9.00">C39</text>
</g>
<!-- S0&#45;&gt;C39 -->
<g id="edge10" class="edge"><title>S0&#45;&gt;C39</title>
<path fill="none" stroke="#555556" stroke-width="0.7" d="M-10.9657,-0.831514C9.38029,-31.3504 98.5092,-165.044 122.766,-201.429"/>
<polygon fill="#555556" stroke="#555556" stroke-width="0.7" points="122.446,-202.211 124.138,-203.486 123.611,-201.434 122.446,-202.211"/>
</g>
<!-- C8&#45;&gt;S7 -->
<g id="edge17" class="edge"><title>C8&#45;&gt;S7</title>
<path fill="none" stroke="#800001" stroke-width="0.7" d="M-187.986,-214.167C-180.387,-217.967 -168.365,-223.978 -160.314,-228.003"/>
<polygon fill="#800001" stroke="#800001" stroke-width="0.7" points="-160.46,-228.712 -158.358,-228.981 -159.834,-227.46 -160.46,-228.712"/>
</g>
<!-- S3&#45;&gt;S0 -->
<g id="edge13" class="edge"><title>S3&#45;&gt;S0</title>
<path fill="none" stroke="#555556" stroke-width="0.7" d="M103.749,-218.353C86.2242,-185.365 8.66451,-39.3708 -10.7183,-2.88548"/>
<polygon fill="#555556" stroke="#555556" stroke-width="0.7" points="-10.2499,-2.27502 -11.8065,-0.837201 -11.4863,-2.93187 -10.2499,-2.27502"/>
</g>
<!-- C62 -->
<g id="node13" class="node"><title>C62</title>
<polygon fill="none" stroke="red" points="171.88,106.4 157.88,106.4 157.88,120.4 171.88,120.4 171.88,106.4"/>
<text text-anchor="middle" x="164.88" y="115.6" font-family="Times,serif" font-size="9.00">C62</text>
</g>
<!-- C62&#45;&gt;S0 -->
<g id="edge9" class="edge"><title>C62&#45;&gt;S0</title>
<path fill="none" stroke="#2aaaab" stroke-width="0.7" d="M157.601,109.033C128.826,91.7674 23.1135,28.3401 -7.04114,10.2473"/>
<polygon fill="#2aaaab" stroke="#2aaaab" stroke-width="0.7" points="-7.72477,10.6535 -9.07961,9.02424 -7.00445,9.45302 -7.72477,10.6535"/>
</g>
<!-- S19 -->
<g id="node18" class="node"><title>S19</title>
<ellipse fill="none" stroke="blue" cx="251.28" cy="149.4" rx="7" ry="7"/>
<text text-anchor="middle" x="251.28" y="151.6" font-family="Times,serif" font-size="9.00">S19</text>
</g>
<!-- C34&#45;&gt;S19 -->
<g id="edge5" class="edge"><title>C34&#45;&gt;S19</title>
<path fill="none" stroke="#2aaaab" stroke-width="0.7" d="M301.817,117.814C291.026,124.559 270.5,137.387 259.212,144.443"/>
<polygon fill="#2aaaab" stroke="#2aaaab" stroke-width="0.7" points="259.416,145.14 257.349,145.607 258.674,143.953 259.416,145.14"/>
</g>
<!-- C84&#45;&gt;C90 -->
<g id="edge26" class="edge"><title>C84&#45;&gt;C90</title>
<path fill="none" stroke="#d55557" stroke-width="0.7" d="M99.941,149.995C75.6653,128.147 -1.97284,58.2724 -28.0693,34.7856"/>
<polygon fill="#d55557" stroke="#d55557" stroke-width="0.7" points="-28.5484,35.2962 -29.5667,33.438 -27.6118,34.2556 -28.5484,35.2962"/>
</g>
<!-- C39&#45;&gt;C72 -->
<g id="edge11" class="edge"><title>C39&#45;&gt;C72</title>
<path fill="none" stroke="#555556" stroke-width="0.7" d="M130.297,-203.514C134.064,-184.678 144.329,-133.357 148.588,-112.059"/>
<polygon fill="#555556" stroke="#555556" stroke-width="0.7" points="149.323,-111.952 149.029,-109.854 147.951,-111.678 149.323,-111.952"/>
</g>
<!-- C33 -->
<g id="node17" class="node"><title>C33</title>
<polygon fill="none" stroke="red" points="315.88,178.4 301.88,178.4 301.88,192.4 315.88,192.4 315.88,178.4"/>
<text text-anchor="middle" x="308.88" y="187.6" font-family="Times,serif" font-size="9.00">C33</text>
</g>
<!-- C33&#45;&gt;S19 -->
<g id="edge7" class="edge"><title>C33&#45;&gt;S19</title>
<path fill="none" stroke="#2aaaab" stroke-width="0.7" d="M301.86,185.706C289.822,182.267 266.185,167.748 255.936,157.764"/>
<polygon fill="#2aaaab" stroke="#2aaaab" stroke-width="0.7" points="254.957,157.758 254.071,155.833 255.964,156.786 254.957,157.758"/>
</g>
<!-- S19&#45;&gt;C62 -->
<g id="edge8" class="edge"><title>S19&#45;&gt;C62</title>
<path fill="none" stroke="#2aaaab" stroke-width="0.7" d="M244.786,146.694C229.55,140.346 191.479,124.483 173.961,117.184"/>
<polygon fill="#2aaaab" stroke="#2aaaab" stroke-width="0.7" points="173.507,117.753 171.93,116.337 174.045,116.461 173.507,117.753"/>
</g>
<!-- S19&#45;&gt;C33 -->
<g id="edge6" class="edge"><title>S19&#45;&gt;C33</title>
<path fill="none" stroke="#2aaaab" stroke-width="0.7" d="M258.3,149.094C270.294,152.521 293.801,166.946 304.111,176.926"/>
<polygon fill="#2aaaab" stroke="#2aaaab" stroke-width="0.7" points="304.625,176.45 305.534,178.364 303.629,177.434 304.625,176.45"/>
</g>
<!-- C15&#45;&gt;S0 -->
<g id="edge3" class="edge"><title>C15&#45;&gt;S0</title>
<path fill="none" stroke="#000000" stroke-width="0.7" d="M-281.682,75.5479C-244.047,65.644 -66.6935,18.972 -24.2583,7.80481"/>
<polygon fill="#000000" stroke="#000000" stroke-width="0.7" points="-24.2239,7.07199 -22.1116,7.23989 -23.8676,8.4259 -24.2239,7.07199"/>
</g>
<!-- C87&#45;&gt;S11 -->
<g id="edge23" class="edge"><title>C87&#45;&gt;S11</title>
<path fill="none" stroke="#aaaaac" stroke-width="0.7" d="M-220.354,185.333C-222.322,181.396 -224.766,176.507 -226.828,172.384"/>
<polygon fill="#aaaaac" stroke="#aaaaac" stroke-width="0.7" points="-227.66,172.285 -227.929,170.183 -226.408,171.659 -227.66,172.285"/>
</g>
</g>
</svg>
